<?xml version="1.0" encoding="utf-8"?>
<!-- Generator: Adobe Illustrator 19.1.0, SVG Export Plug-In . SVG Version: 6.00 Build 0)  -->
<svg version="1.1" xmlns="http://www.w3.org/2000/svg" xmlns:xlink="http://www.w3.org/1999/xlink" x="0px" y="0px"
	 viewBox="0 0 310 153.7" style="enable-background:new 0 0 310 153.7;" xml:space="preserve">
<style type="text/css">
	.st0{fill:#2D2D2D;}
	.st1{fill:#525151;}
	.st2{fill:#EAEAEA;}
	.st3{fill:#1E1E1E;}
	.st4{display:none;}
	.st5{display:inline;fill:#FFFFFF;}
</style>
<g id="Calque_1">
	<path class="st0" d="M6.3,153.6C6.3,71.5,72.8,5,154.9,5s148.6,66.5,148.6,148.6"/>
	<path class="st1" d="M11.2,153.6C11.2,74.2,75.5,9.8,154.9,9.8s143.7,64.3,143.7,143.7"/>
	<path class="st0" d="M28.7,153.7C28.7,84,85.2,26.6,154.9,26.6S281.1,84,281.1,153.7"/>
	<path class="st1" d="M32.4,153.7c0-67.6,54.8-123.4,122.4-123.4s122.4,55.8,122.4,123.4"/>
	<path class="st0" d="M39.8,153.6c0-63.5,51.5-115,115-115s115,51.5,115,115"/>
	<path class="st1" d="M43.9,153.6c0-61.3,49.7-111,111-111s111,49.7,111,111"/>
	<path class="st0" d="M53.6,153.7c0-55.9,45.3-101.3,101.3-101.3s101.3,45.3,101.3,101.3"/>
	<path class="st1" d="M57.2,153.7c0-54,43.7-98.7,97.7-98.7s97.7,44.7,97.7,98.7"/>
	<path class="st0" d="M67.3,153.6c0-48.4,39.2-87.6,87.6-87.6s87.6,39.2,87.6,87.6"/>
	<path class="st1" d="M70.3,153.6c0-46.7,37.9-84.6,84.6-84.6s84.6,37.9,84.6,84.6"/>
	<path class="st0" d="M77.6,153.7c0-42.7,34.6-78.2,77.2-78.2s77.2,35.6,77.2,78.2"/>
	<path class="st1" d="M79.8,153.7c0-41.5,33.6-76.1,75.1-76.1s75.1,34.6,75.1,76.1"/>
	<path class="st0" d="M88.1,153.7c0-36.9,29.9-67.8,66.8-67.8s66.8,30.9,66.8,67.8"/>
	<path class="st2" d="M107.8,153.6c0-25.6,20.7-46.3,46.3-46.3s46.3,20.7,46.3,46.3"/>
	<path class="st3" d="M144.2,153.6c0-5.5,4.4-9.9,9.9-9.9c5.5,0,9.9,4.4,9.9,9.9"/>
</g>
<g id="Calque_2" class="st4">
	<rect y="153.6" class="st5" width="310" height="158.8"/>
</g>
</svg>
